<?xml version="1.0" encoding="UTF-8"?>
<!DOCTYPE svg PUBLIC "-//W3C//DTD SVG 1.1//EN" "http://www.w3.org/Graphics/SVG/1.1/DTD/svg11.dtd">
<!-- Creator: CorelDRAW -->
<svg xmlns="http://www.w3.org/2000/svg" xml:space="preserve" width="6.82666in" height="6.82666in" style="shape-rendering:geometricPrecision; text-rendering:geometricPrecision; image-rendering:optimizeQuality; fill-rule:evenodd; clip-rule:evenodd"
viewBox="0 0 6.82666 6.82666"
 xmlns:xlink="http://www.w3.org/1999/xlink"
 version="1.1">
 <defs>
  <style type="text/css">
   <![CDATA[
    .fil6 {fill:none}
    .fil1 {fill:#465B65}
    .fil0 {fill:#556F7A}
    .fil3 {fill:#DDE3E7}
    .fil2 {fill:#EDEFF0}
    .fil5 {fill:#F8B53C}
    .fil4 {fill:#FEC245}
   ]]>
  </style>
 </defs>
 <g id="Layer_x0020_1">
  <metadata id="CorelCorpID_0Corel-Layer"/>
  <g id="_586178320">
   <g id="Guides">
   </g>
   <g id="Layer_2">
   </g>
   <g id="Layer_3">
   </g>
   <g id="Layer_4">
   </g>
   <g id="Layer_5">
   </g>
   <g id="Layer_6">
   </g>
   <g id="Layer_7">
   </g>
   <g id="Layer_8">
   </g>
   <g id="Layer_9">
   </g>
   <g id="Layer_10">
   </g>
   <g id="Layer_11">
   </g>
   <g id="Layer_12">
   </g>
   <g id="Layer_13">
   </g>
   <g id="Layer_14">
    <g>
     <g>
      <path id="_586147912" class="fil0" d="M5.31641 3.03943c-0.0454331,-0.237299 -0.134866,-0.458965 -0.259433,-0.656232l0.368835 -0.461465 -0.479465 -0.479465 -0.455339 0.363898c-0.192634,-0.126933 -0.409598,-0.219866 -0.642433,-0.270335l-0.0669685 -0.600232 -0.678028 0 -0.0669685 0.600232c-0.225165,0.0487992 -0.4355,0.137335 -0.623335,0.257902l-0.491528 -0.392835 -0.479469 0.479469 0.393 0.491701c-0.116402,0.181567 -0.202866,0.384134 -0.252465,0.600768l-0.647201 0.0722008 0 0.678028 0.639835 0.0714016c0.045,0.214268 0.125902,0.415299 0.236201,0.5965l-0.410732 0.513933 0.479465 0.479465 0.4995 -0.399201c0.178768,0.120134 0.379,0.210768 0.593701,0.265067l0.0715 0.640835 0.678028 -3.93701e-006 0.0685669 -0.614598c0.226232,-0.0418346 0.438433,-0.123567 0.629098,-0.237634l0.0035315 -0.00329921c0.232134,-0.139701 0.432134,-0.327402 0.586134,-0.549398l0.0035 -0.00326772c0.130866,-0.189665 0.228299,-0.404165 0.283768,-0.635l0.593335 -0.0662008 -3.93701e-006 -0.678098 -0.57463 -0.0641339z"/>
     </g>
     <g>
      <path id="_586147888" class="fil1" d="M5.31641 3.03943c-0.0454331,-0.237299 -0.134866,-0.458965 -0.259433,-0.656232l0.368835 -0.461465 -0.479465 -0.479465 -0.455339 0.363898c-0.192634,-0.126933 -0.409598,-0.219866 -0.642433,-0.270335l-0.0669685 -0.600232 -0.375425 0 0 4.95546 0.316929 0 0.0685669 -0.614598c0.226232,-0.0418346 0.438433,-0.123567 0.629098,-0.237634l0.0035315 -0.00329921c0.232134,-0.139701 0.432134,-0.327402 0.586134,-0.549398l0.0035 -0.00326772c0.130866,-0.189665 0.228299,-0.404165 0.283768,-0.635l0.593335 -0.0662008 -3.93701e-006 -0.678098 -0.57463 -0.0641339z"/>
     </g>
     <g>
      <circle id="_586147552" class="fil2" cx="3.44258" cy="3.40043" r="1.00083"/>
     </g>
     <g>
      <path id="_586147528" class="fil3" d="M3.44258 2.39963c-0.0122008,0 -0.0242992,0.000299213 -0.0364016,0.000732283l0 2.00019c0.0120984,0.000433071 0.0242008,0.000732283 0.0364016,0.000732283 0.552728,0 1.00083,-0.448098 1.00083,-1.00083 0,-0.552732 -0.448063,-1.00083 -1.00083,-1.00083z"/>
     </g>
     <g>
      <g>
       <path id="_586147120" class="fil4" d="M4.01305 2.8594c-0.253035,-0.252732 -0.633531,-0.300531 -0.934831,-0.143465l0.539264 0.538567 -0.339094 0.338661 -0.539268 -0.538563c-0.157268,0.300902 -0.109402,0.680929 0.143665,0.933661 0.2435,0.243201 0.605028,0.296634 0.900429,0.160402l1.45267 1.4508c0.107835,0.107701 0.282634,0.107701 0.390465,0l0 0c0.107835,-0.107701 0.107835,-0.282268 0,-0.389965l-1.45267 -1.4508c0.136402,-0.295067 0.0828701,-0.656098 -0.16063,-0.899299z"/>
      </g>
     </g>
     <g>
      <path id="_586146520" class="fil5" d="M5.62631 5.20946l-1.45267 -1.4508c0.136433,-0.295028 0.0829016,-0.656094 -0.160598,-0.899264 -0.166665,-0.166469 -0.388634,-0.244 -0.606831,-0.232665l0 0.416799 0.211228 0.210965 -0.211228 0.210965 0 0.755461c0.128362,0.00666535 0.258028,-0.0174331 0.376961,-0.0722992l1.45267 1.4508c0.107835,0.107701 0.282634,0.107701 0.390465,0l3.93701e-006 3.93701e-006c0.107799,-0.107701 0.107799,-0.282299 0,-0.389965z"/>
     </g>
    </g>
   </g>
   <g id="Layer_15">
   </g>
   <g id="Layer_16">
   </g>
   <g id="Layer_17">
   </g>
   <g id="Layer_18">
   </g>
   <g id="Layer_19">
   </g>
   <g id="Layer_20">
   </g>
   <g id="Layer_21">
   </g>
   <g id="Layer_22">
   </g>
   <g id="Layer_23">
   </g>
   <g id="Layer_24">
   </g>
   <g id="Layer_25">
   </g>
   <g id="Layer_26">
   </g>
  </g>
 </g>
 <rect class="fil6" width="6.82666" height="6.82666"/>
</svg>
